<svg width="20.000000" height="19.000000" viewBox="0 0 20 19" fill="none" xmlns="http://www.w3.org/2000/svg" xmlns:xlink="http://www.w3.org/1999/xlink">
	<desc>
			Created with Pixso.
	</desc>
	<defs/>
	<path id="Vector" d="M9.97 -0.73C4.45 -0.73 -0.03 3.75 -0.03 9.27C-0.03 11.37 0.63 13.42 1.86 15.12C3.09 16.82 4.82 18.1 6.81 18.76C7.31 18.85 7.5 18.55 7.5 18.29C7.5 18.05 7.48 17.26 7.48 16.42C4.97 16.89 4.32 15.81 4.12 15.25C4.01 14.96 3.52 14.07 3.1 13.84C2.75 13.65 2.25 13.19 3.08 13.17C3.87 13.16 4.43 13.9 4.62 14.2C5.52 15.71 6.96 15.29 7.53 15.02C7.62 14.37 7.88 13.94 8.17 13.69C5.95 13.44 3.62 12.57 3.62 8.75C3.62 7.66 4.01 6.76 4.65 6.06C4.55 5.81 4.2 4.79 4.75 3.41C4.75 3.41 5.58 3.15 7.5 4.44C8.31 4.21 9.15 4.1 10 4.1C10.85 4.1 11.7 4.21 12.5 4.44C14.41 3.14 15.25 3.41 15.25 3.41C15.8 4.79 15.45 5.81 15.35 6.06C15.98 6.76 16.37 7.65 16.37 8.75C16.37 12.59 14.04 13.44 11.81 13.69C12.17 14 12.49 14.6 12.49 15.54C12.49 16.87 12.47 17.95 12.47 18.29C12.47 18.55 12.66 18.86 13.16 18.76C15.15 18.09 16.87 16.81 18.09 15.11C19.31 13.41 19.97 11.37 19.97 9.27C19.97 3.75 15.5 -0.73 9.97 -0.73Z" fill="#607B96" fill-opacity="1.000000" fill-rule="nonzero"/>
</svg>
